# MagicaVoxel @ ephtracy

# material
mtllib Lamp 1.mtl
usemtl palette

# normals
vn -1 0 0
vn 1 0 0
vn 0 0 1
vn 0 0 -1
vn 0 -1 0
vn 0 1 0

# texcoords
vt 0.0214844 0.5
vt 0.982422 0.5

# verts
v -4 8 1.5
v -4 8 -1.5
v -4 9 1.5
v -4 9 -1.5
v -3 9 0.5
v -3 9 -0.5
v -3 10 0.5
v -3 10 -0.5
v -2 7 1.5
v -2 7 -1.5
v -2 8 1.5
v -2 8 -1.5
v -1 6 1.5
v -1 6 -1.5
v -1 7 1.5
v -1 7 -1.5
v 0 0 1.5
v 0 0 -1.5
v 0 6 1.5
v 0 6 -1.5
v 1 6 1.5
v 1 6 -1.5
v 1 7 1.5
v 1 7 -1.5
v 2 7 1.5
v 2 7 -1.5
v 2 8 1.5
v 2 8 -1.5
v 2 9 1.5
v 2 9 -1.5
v 3 9 0.5
v 3 9 -0.5
v 3 10 0.5
v 3 10 -0.5
v -2 9 0.5
v -2 9 -0.5
v -2 10 0.5
v -2 10 -0.5
v -1 7 1.5
v -1 7 -1.5
v -1 8 1.5
v -1 8 -1.5
v -1 9 1.5
v -1 9 -1.5
v 0 6 1.5
v 0 6 -1.5
v 0 7 1.5
v 0 7 -1.5
v 1 0 1.5
v 1 0 -1.5
v 1 6 1.5
v 1 6 -1.5
v 2 6 1.5
v 2 6 -1.5
v 2 7 1.5
v 2 7 -1.5
v 3 7 1.5
v 3 7 -1.5
v 3 8 1.5
v 3 8 -1.5
v 4 9 0.5
v 4 9 -0.5
v 4 10 0.5
v 4 10 -0.5
v 5 8 1.5
v 5 8 -1.5
v 5 9 1.5
v 5 9 -1.5
v -4 8 1.5
v -4 9 1.5
v -2 7 1.5
v -2 8 1.5
v -1 6 1.5
v -1 7 1.5
v -1 8 1.5
v -1 9 1.5
v 0 0 1.5
v 0 6 1.5
v 0 7 1.5
v 1 0 1.5
v 1 6 1.5
v 1 7 1.5
v 2 6 1.5
v 2 7 1.5
v 2 8 1.5
v 2 9 1.5
v 3 7 1.5
v 3 8 1.5
v 5 8 1.5
v 5 9 1.5
v -3 9 0.5
v -3 10 0.5
v -2 9 0.5
v -2 10 0.5
v 3 9 0.5
v 3 10 0.5
v 4 9 0.5
v 4 10 0.5
v -3 9 -0.5
v -3 10 -0.5
v -2 9 -0.5
v -2 10 -0.5
v 3 9 -0.5
v 3 10 -0.5
v 4 9 -0.5
v 4 10 -0.5
v -4 8 -1.5
v -4 9 -1.5
v -2 7 -1.5
v -2 8 -1.5
v -1 6 -1.5
v -1 7 -1.5
v -1 8 -1.5
v -1 9 -1.5
v 0 0 -1.5
v 0 6 -1.5
v 0 7 -1.5
v 1 0 -1.5
v 1 6 -1.5
v 1 7 -1.5
v 2 6 -1.5
v 2 7 -1.5
v 2 8 -1.5
v 2 9 -1.5
v 3 7 -1.5
v 3 8 -1.5
v 5 8 -1.5
v 5 9 -1.5
v 0 0 1.5
v 1 0 1.5
v 0 0 -1.5
v 1 0 -1.5
v -1 6 1.5
v 0 6 1.5
v 1 6 1.5
v 2 6 1.5
v -1 6 -1.5
v 0 6 -1.5
v 1 6 -1.5
v 2 6 -1.5
v -2 7 1.5
v -1 7 1.5
v 2 7 1.5
v 3 7 1.5
v -2 7 -1.5
v -1 7 -1.5
v 2 7 -1.5
v 3 7 -1.5
v -4 8 1.5
v -2 8 1.5
v 3 8 1.5
v 5 8 1.5
v -4 8 -1.5
v -2 8 -1.5
v 3 8 -1.5
v 5 8 -1.5
v 0 6 1.5
v 1 6 1.5
v 0 6 -1.5
v 1 6 -1.5
v -1 7 1.5
v 0 7 1.5
v 1 7 1.5
v 2 7 1.5
v -1 7 -1.5
v 0 7 -1.5
v 1 7 -1.5
v 2 7 -1.5
v -4 9 1.5
v -1 9 1.5
v 2 9 1.5
v 5 9 1.5
v -3 9 0.5
v -2 9 0.5
v 3 9 0.5
v 4 9 0.5
v -3 9 -0.5
v -2 9 -0.5
v 3 9 -0.5
v 4 9 -0.5
v -4 9 -1.5
v -1 9 -1.5
v 2 9 -1.5
v 5 9 -1.5
v -3 10 0.5
v -2 10 0.5
v 3 10 0.5
v 4 10 0.5
v -3 10 -0.5
v -2 10 -0.5
v 3 10 -0.5
v 4 10 -0.5

# faces
f 3/1/1 2/1/1 1/1/1
f 4/1/1 2/1/1 3/1/1
f 7/1/1 6/1/1 5/1/1
f 8/1/1 6/1/1 7/1/1
f 11/2/1 10/2/1 9/2/1
f 12/2/1 10/2/1 11/2/1
f 15/2/1 14/2/1 13/2/1
f 16/2/1 14/2/1 15/2/1
f 19/2/1 18/2/1 17/2/1
f 20/2/1 18/2/1 19/2/1
f 23/2/1 22/2/1 21/2/1
f 24/2/1 22/2/1 23/2/1
f 27/2/1 26/2/1 25/2/1
f 28/2/1 26/2/1 27/2/1
f 29/1/1 28/1/1 27/1/1
f 30/1/1 28/1/1 29/1/1
f 33/1/1 32/1/1 31/1/1
f 34/1/1 32/1/1 33/1/1
f 35/1/2 36/1/2 37/1/2
f 37/1/2 36/1/2 38/1/2
f 39/2/2 40/2/2 41/2/2
f 41/2/2 40/2/2 42/2/2
f 41/1/2 42/1/2 43/1/2
f 43/1/2 42/1/2 44/1/2
f 45/2/2 46/2/2 47/2/2
f 47/2/2 46/2/2 48/2/2
f 49/2/2 50/2/2 51/2/2
f 51/2/2 50/2/2 52/2/2
f 53/2/2 54/2/2 55/2/2
f 55/2/2 54/2/2 56/2/2
f 57/2/2 58/2/2 59/2/2
f 59/2/2 58/2/2 60/2/2
f 61/1/2 62/1/2 63/1/2
f 63/1/2 62/1/2 64/1/2
f 65/1/2 66/1/2 67/1/2
f 67/1/2 66/1/2 68/1/2
f 72/1/3 70/1/3 69/1/3
f 74/2/3 72/2/3 71/2/3
f 75/1/3 70/1/3 72/1/3
f 75/2/3 72/2/3 74/2/3
f 76/1/3 70/1/3 75/1/3
f 78/2/3 74/2/3 73/2/3
f 79/2/3 74/2/3 78/2/3
f 80/2/3 78/2/3 77/2/3
f 81/2/3 78/2/3 80/2/3
f 83/2/3 82/2/3 81/2/3
f 84/2/3 82/2/3 83/2/3
f 87/2/3 85/2/3 84/2/3
f 88/1/3 86/1/3 85/1/3
f 88/2/3 85/2/3 87/2/3
f 89/1/3 86/1/3 88/1/3
f 90/1/3 86/1/3 89/1/3
f 93/1/3 92/1/3 91/1/3
f 94/1/3 92/1/3 93/1/3
f 97/1/3 96/1/3 95/1/3
f 98/1/3 96/1/3 97/1/3
f 99/1/4 100/1/4 101/1/4
f 101/1/4 100/1/4 102/1/4
f 103/1/4 104/1/4 105/1/4
f 105/1/4 104/1/4 106/1/4
f 107/1/4 108/1/4 110/1/4
f 109/2/4 110/2/4 112/2/4
f 110/1/4 108/1/4 113/1/4
f 112/2/4 110/2/4 113/2/4
f 113/1/4 108/1/4 114/1/4
f 111/2/4 112/2/4 116/2/4
f 116/2/4 112/2/4 117/2/4
f 115/2/4 116/2/4 118/2/4
f 118/2/4 116/2/4 119/2/4
f 119/2/4 120/2/4 121/2/4
f 121/2/4 120/2/4 122/2/4
f 122/2/4 123/2/4 125/2/4
f 123/1/4 124/1/4 126/1/4
f 125/2/4 123/2/4 126/2/4
f 126/1/4 124/1/4 127/1/4
f 127/1/4 124/1/4 128/1/4
f 131/2/5 130/2/5 129/2/5
f 132/2/5 130/2/5 131/2/5
f 137/2/5 134/2/5 133/2/5
f 138/2/5 134/2/5 137/2/5
f 139/2/5 136/2/5 135/2/5
f 140/2/5 136/2/5 139/2/5
f 145/2/5 142/2/5 141/2/5
f 146/2/5 142/2/5 145/2/5
f 147/2/5 144/2/5 143/2/5
f 148/2/5 144/2/5 147/2/5
f 153/1/5 150/1/5 149/1/5
f 154/1/5 150/1/5 153/1/5
f 155/1/5 152/1/5 151/1/5
f 156/1/5 152/1/5 155/1/5
f 157/2/6 158/2/6 159/2/6
f 159/2/6 158/2/6 160/2/6
f 161/2/6 162/2/6 165/2/6
f 165/2/6 162/2/6 166/2/6
f 163/2/6 164/2/6 167/2/6
f 167/2/6 164/2/6 168/2/6
f 169/1/6 170/1/6 173/1/6
f 173/1/6 170/1/6 174/1/6
f 171/1/6 172/1/6 175/1/6
f 175/1/6 172/1/6 176/1/6
f 169/1/6 173/1/6 177/1/6
f 174/1/6 170/1/6 178/1/6
f 171/1/6 175/1/6 179/1/6
f 176/1/6 172/1/6 180/1/6
f 169/1/6 177/1/6 181/1/6
f 177/1/6 178/1/6 181/1/6
f 178/1/6 170/1/6 182/1/6
f 181/1/6 178/1/6 182/1/6
f 179/1/6 180/1/6 183/1/6
f 171/1/6 179/1/6 183/1/6
f 180/1/6 172/1/6 184/1/6
f 183/1/6 180/1/6 184/1/6
f 185/1/6 186/1/6 189/1/6
f 189/1/6 186/1/6 190/1/6
f 187/1/6 188/1/6 191/1/6
f 191/1/6 188/1/6 192/1/6
